<?xml version="1.0" encoding="UTF-8"?>
<svg xmlns="http://www.w3.org/2000/svg" width="1024" height="1024" viewBox="0 0 1024 1024">
  <rect width="1024" height="1024" rx="225" ry="225" fill="#0B1F3A"></rect>
  <g fill="none" stroke="#FFFFFF" stroke-width="70" stroke-linecap="round" stroke-linejoin="round">
    <path d="M 200 220 h 624"></path>
    <path d="M 512 220 v 180"></path>
    <path d="M 372 400 h 280 a 40 40 0 0 1 40 40 v 60 a 40 40 0 0 1 -40 40 h -280 a 40 40 0 0 1 -40 -40 v -60 a 40 40 0 0 1 40 -40 Z"></path>
    <path d="M 372 540 L 300 740 L 360 780"></path>
    <path d="M 652 540 L 724 740 L 664 780"></path>
    <path d="M 512 640 l 18 -58 l 18 58 l 58 18 l -58 18 l -18 58 l -18 -58 l -58 -18 Z" fill="#FFFFFF" stroke="none"></path>
    <circle cx="420" cy="470" r="14" fill="#FFFFFF" stroke="none"></circle>
    <circle cx="604" cy="470" r="14" fill="#FFFFFF" stroke="none"></circle>
  </g>
</svg>