<?xml version="1.0" encoding="UTF-8"?>
<svg xmlns="http://www.w3.org/2000/svg" width="1024" height="1024" viewBox="0 0 1024 1024">
  
  <g fill="none" stroke="#FFFFFF" stroke-width="70" stroke-linecap="round" stroke-linejoin="round">
    
    <rect x="286" y="340" width="452" height="420" rx="110" ry="110"></rect>
    
    <path d="M 286 500 c -90 -20 -120 60 -60 100 c 40 26 80 -10 60 -50"></path>
    
    <path d="M 738 500 c 90 -20 120 60 60 100 c -40 26 -80 -10 -60 -50"></path>
    
    <path d="M 430 340 L 512 210 L 594 340"></path>
    <circle cx="512" cy="188" r="28" fill="#FFFFFF" stroke="none"></circle>
    
    <path d="M 420 480 l 14 -42 l 14 42 l 42 14 l -42 14 l -14 42 l -14 -42 l -42 -14 Z" fill="#FFFFFF" stroke="none"></path>
    <path d="M 576 480 l 14 -42 l 14 42 l 42 14 l -42 14 l -14 42 l -14 -42 l -42 -14 Z" fill="#FFFFFF" stroke="none"></path>
    
    <circle cx="512" cy="588" r="28" fill="#FFFFFF" stroke="none"></circle>
    
    <path d="M 430 668 Q 512 740 594 668"></path>
  </g>

</svg>